HIERARCHY
ROOT hip
{
	OFFSET 0.000000 0.000000 0.000000
	CHANNELS 6 Xposition Yposition Zposition Xrotation Zrotation Yrotation 
	JOINT abdomen
	{
		OFFSET 0.000000 3.422050 0.000000
		CHANNELS 3 Xrotation Zrotation Yrotation 
		JOINT chest
		{
			OFFSET 0.000000 8.486693 -0.684411
			CHANNELS 3 Xrotation Zrotation Yrotation 
			JOINT neck
			{
				OFFSET 0.000000 10.266162 -0.273764
				CHANNELS 3 Xrotation Zrotation Yrotation 
				JOINT head
				{
					OFFSET 0.000000 3.148285 0.000000
					CHANNELS 3 Xrotation Zrotation Yrotation 
					End Site
					{
						OFFSET 0.000000 3.148289 0.000000
					}
				}
			}
			JOINT lCollar
			{
				OFFSET 3.422053 6.707223 -0.821293
				CHANNELS 3 Yrotation Zrotation Xrotation 
				JOINT lShldr
				{
					OFFSET 3.285171 0.000000 0.000000
					CHANNELS 3 Zrotation Yrotation Xrotation 
					JOINT lForeArm
					{
						OFFSET 10.129278 0.000000 0.000000
						CHANNELS 3 Yrotation Zrotation Xrotation 
						JOINT lHand
						{
							OFFSET 8.486692 0.000000 0.000000
							CHANNELS 3 Zrotation Yrotation Xrotation 
							End Site
							{
								OFFSET 4.106464 0.000000 0.000000
							}
						}
					}
				}
			}
			JOINT rCollar
			{
				OFFSET -3.558935 6.707223 -0.821293
				CHANNELS 3 Yrotation Zrotation Xrotation 
				JOINT rShldr
				{
					OFFSET -3.148289 0.000000 0.000000
					CHANNELS 3 Zrotation Yrotation Xrotation 
					JOINT rForeArm
					{
						OFFSET -10.266159 0.000000 0.000000
						CHANNELS 3 Yrotation Zrotation Xrotation 
						JOINT rHand
						{
							OFFSET -8.349810 0.000000 0.000000
							CHANNELS 3 Zrotation Yrotation Xrotation 
							End Site
							{
								OFFSET -4.106464 0.000000 0.000000
							}
						}
					}
				}
			}
		}
	}
	JOINT lThigh
	{
		OFFSET 5.338403 -1.642589 1.368821
		CHANNELS 3 Xrotation Zrotation Yrotation 
		JOINT lShin
		{
			OFFSET -2.053232 -20.121670 0.000000
			CHANNELS 3 Xrotation Zrotation Yrotation 
			JOINT lFoot
			{
				OFFSET 0.000000 -19.300380 -1.231939
				CHANNELS 3 Xrotation Yrotation Zrotation 
				End Site
				{
					OFFSET 0.000000 -2.463878 4.653993
				}
			}
		}
	}
	JOINT rThigh
	{
		OFFSET -5.338403 -1.642589 1.368821
		CHANNELS 3 Xrotation Zrotation Yrotation 
		JOINT rShin
		{
			OFFSET 2.053232 -20.121670 0.000000
			CHANNELS 3 Xrotation Zrotation Yrotation 
			JOINT rFoot
			{
				OFFSET 0.000000 -19.300380 -1.231939
				CHANNELS 3 Xrotation Yrotation Zrotation 
				End Site
				{
					OFFSET 0.000000 -2.463878 4.653993
				}
			}
		}
	}
}
MOTION
Frames: 14
Frame Time: 0.033315
-17.472744 6.495411 17.610912 0.000000 0.000000 180.000000 -0.244124 2.467662 0.115422 0.008348 -3.238397 -21.895687 -14.000949 -15.003624 -29.000902 -6.889750 26.745134 -14.823359 -2.099849 -27.158018 -1.610122 -27.477674 -25.183586 7.428901 -78.790710 12.465729 5.085162 -34.000759 0.000000 0.000000 0.411525 8.576622 -0.320188 47.504555 29.161346 -23.730881 45.730629 12.469497 -48.814251 6.996825 0.000000 0.000000 -123.175331 -12.482766 -1.593444 87.682556 0.025075 -4.876927 13.611595 2.328721 5.489282 -83.755264 -6.756190 -53.182072 110.144814 27.974726 12.400018 14.680790 -1.731548 -5.013693 
-17.472744 6.495411 17.610912 0.000000 0.000000 180.000000 -0.244124 2.467662 0.115422 0.008348 -3.238397 -21.895687 -14.000949 -15.003624 -29.000902 -6.778083 26.490932 -14.645574 -2.099849 -27.158018 -1.610122 -27.477674 -25.183586 7.428901 -78.806671 12.041964 4.809586 -34.000759 0.000000 0.000000 0.411525 8.576622 -0.320188 46.995228 29.662331 -23.987238 44.873379 13.205690 -47.358414 6.996825 0.000000 0.000000 -123.175331 -12.482766 -1.593444 87.682556 0.025075 -4.876927 13.611595 2.328721 5.489282 -83.755264 -6.756190 -53.182072 110.144814 27.974726 12.400018 14.680790 -1.731548 -5.013693 
-17.472744 6.495411 17.610912 0.000000 0.000000 180.000000 -0.244124 2.467662 0.115422 0.008348 -3.238397 -21.895687 -14.000949 -15.003624 -29.000902 -6.667470 26.236258 -14.468617 -2.099849 -27.158018 -1.610122 -27.477674 -25.183586 7.428901 -78.824738 11.617450 4.533778 -34.000759 0.000000 0.000000 0.411525 8.576622 -0.320188 46.480286 30.161739 -24.250265 43.991787 13.922464 -45.882393 6.996825 0.000000 0.000000 -123.175331 -12.482766 -1.593444 87.682556 0.025075 -4.876927 13.611595 2.328721 5.489282 -83.755264 -6.756190 -53.182072 110.144814 27.974726 12.400018 14.680790 -1.731548 -5.013693 
-17.472744 6.495411 17.610912 0.000000 0.000000 180.000000 -0.244124 2.467662 0.115422 0.008348 -3.238397 -21.895689 -14.000949 -15.003624 -29.000902 -6.557903 25.981115 -14.292479 -2.099849 -27.158018 -1.610122 -27.477674 -25.183586 7.428901 -78.844887 11.192211 4.257715 -34.000759 0.000000 0.000000 0.411525 8.576622 -0.320188 45.959621 30.659479 -24.520069 43.086220 14.618605 -44.386543 6.996825 0.000000 0.000000 -123.175331 -12.482766 -1.593444 87.682556 0.025075 -4.876927 13.611595 2.328721 5.489282 -83.755264 -6.756190 -53.182072 110.144814 27.974726 12.400018 14.680792 -1.731548 -5.013694 
-17.472744 6.495411 17.610912 0.000000 0.000000 180.000000 -0.244124 2.467662 0.115422 0.008348 -3.238396 -21.895687 -14.000949 -15.003624 -29.000902 -6.449369 25.725491 -14.117143 -2.099849 -27.158018 -1.610122 -27.477674 -25.183586 7.428901 -78.867149 10.766270 3.981378 -34.000759 0.000000 0.000000 0.411525 8.576622 -0.320188 45.433121 31.155451 -24.796764 42.157169 15.292939 -42.871353 6.996825 0.000000 0.000000 -123.175331 -12.482766 -1.593444 87.682556 0.025075 -4.876927 13.611595 2.328721 5.489282 -83.755264 -6.756190 -53.182072 110.144814 27.974726 12.400018 14.680790 -1.731548 -5.013693 
-17.472744 6.495411 17.610912 0.000000 0.000000 180.000000 -0.244124 2.467662 0.115422 0.008348 -3.238397 -21.895687 -14.000949 -15.003624 -29.000902 -6.341872 25.469427 -13.942618 -2.099849 -27.158018 -1.610122 -27.477674 -25.183586 7.428901 -78.891518 10.339655 3.704746 -34.000759 0.000000 0.000000 0.411525 8.576622 -0.320188 44.900650 31.649546 -25.080462 41.205196 15.944302 -41.337372 6.996825 0.000000 0.000000 -123.175331 -12.482766 -1.593444 87.682556 0.025075 -4.876927 13.611595 2.328721 5.489282 -83.755264 -6.756190 -53.182072 110.144814 27.974726 12.400018 14.680792 -1.731548 -5.013694 
-17.472744 6.495411 17.610912 0.000000 0.000000 180.000000 -0.244124 2.467662 0.115422 0.008348 -3.238397 -21.895689 -14.000949 -15.003624 -29.000902 -6.235395 25.212902 -13.768879 -2.099849 -27.158018 -1.610122 -27.477674 -25.183586 7.428901 -78.917984 9.912386 3.427797 -34.000759 0.000000 0.000000 0.411525 8.576622 -0.320188 44.362110 32.141663 -25.371273 40.230957 16.571566 -39.785225 6.996825 0.000000 0.000000 -123.175331 -12.482766 -1.593444 87.682556 0.025075 -4.876927 13.611595 2.328721 5.489282 -83.755264 -6.756190 -53.182072 110.144814 27.974726 12.400018 14.680790 -1.731548 -5.013693 
-17.472744 6.495411 17.610912 0.000000 0.000000 180.000000 -0.244124 2.467662 0.115422 0.008348 -3.238396 -21.895687 -14.000949 -15.003624 -29.000902 -6.129936 24.955925 -13.595924 -2.099849 -27.158018 -1.610122 -27.477674 -25.183586 7.428901 -78.946556 9.484492 3.150509 -34.000759 0.000000 0.000000 0.411525 8.576622 -0.320188 43.817379 32.631699 -25.669323 39.235237 17.173660 -38.215702 6.996825 0.000000 0.000000 -123.175331 -12.482766 -1.593444 87.682556 0.025075 -4.876927 13.611595 2.328721 5.489282 -83.755264 -6.756190 -53.182072 110.144814 27.974726 12.400018 14.680790 -1.731548 -5.013693 
-17.472744 6.495411 17.610912 0.000000 0.000000 180.000000 -0.244124 2.467662 0.115422 0.008348 -3.238397 -21.895687 -14.000949 -15.003624 -29.000902 -6.025488 24.698509 -13.423747 -2.099849 -27.158018 -1.610122 -27.477674 -25.183586 7.428901 -78.977272 9.056000 2.872864 -34.000759 0.000000 0.000000 0.411525 8.576622 -0.320188 43.266323 33.119534 -25.974709 38.218899 17.749546 -36.629642 6.996825 0.000000 0.000000 -123.175331 -12.482766 -1.593444 87.682556 0.025075 -4.876927 13.611595 2.328721 5.489282 -83.755264 -6.756190 -53.182072 110.144814 27.974726 12.400018 14.680790 -1.731548 -5.013693 
-17.472744 6.495411 17.610912 0.000000 0.000000 180.000000 -0.244124 2.467662 0.115422 0.008348 -3.238397 -21.895687 -14.000949 -15.003624 -29.000902 -5.922046 24.440664 -13.252343 -2.099849 -27.158018 -1.610122 -27.477674 -25.183586 7.428901 -79.010101 8.626935 2.594840 -34.000759 0.000000 0.000000 0.411525 8.576622 -0.320188 42.708820 33.605057 -26.287556 37.182907 18.298241 -35.028000 6.996825 0.000000 0.000000 -123.175331 -12.482766 -1.593444 87.682556 0.025075 -4.876927 13.611595 2.328721 5.489282 -83.755264 -6.756190 -53.182072 110.144814 27.974726 12.400018 14.680790 -1.731548 -5.013693 
-17.472744 6.495411 17.610912 0.000000 0.000000 180.000000 -0.244124 2.467662 0.115422 0.008348 -3.238397 -21.895689 -14.000949 -15.003624 -29.000902 -5.819604 24.182400 -13.081702 -2.099849 -27.158018 -1.610122 -27.477674 -25.183586 7.428901 -79.045036 8.197323 2.316415 -34.000759 0.000000 0.000000 0.411525 8.576622 -0.320188 42.144772 34.088177 -26.607986 36.128349 18.818829 -33.411842 6.996825 0.000000 0.000000 -123.175331 -12.482766 -1.593444 87.682556 0.025075 -4.876927 13.611595 2.328721 5.489282 -83.755264 -6.756190 -53.182072 110.144814 27.974726 12.400018 14.680792 -1.731548 -5.013694 
-17.472744 6.495411 17.610912 0.000000 0.000000 180.000000 -0.244124 2.467662 0.115422 0.008348 -3.238397 -21.895687 -14.000949 -15.003624 -29.000902 -5.718152 23.923708 -12.911813 -2.099849 -27.158018 -1.610122 -27.477674 -25.183586 7.428901 -79.082123 7.767191 2.037570 -34.000759 0.000000 0.000000 0.411525 8.576622 -0.320188 41.574062 34.568779 -26.936119 35.056393 19.310465 -31.782314 6.996825 0.000000 0.000000 -123.175331 -12.482766 -1.593444 87.682556 0.025075 -4.876927 13.611595 2.328721 5.489282 -83.755264 -6.756190 -53.182072 110.144814 27.974726 12.400018 14.680790 -1.731548 -5.013693 
-17.472744 6.495411 17.610912 0.000000 0.000000 180.000000 -0.244124 2.467662 0.115422 0.008348 -3.238397 -21.895687 -14.000949 -15.003624 -29.000902 -5.617686 23.664606 -12.742673 -2.099849 -27.158018 -1.610122 -27.477674 -25.183586 7.428901 -79.121330 7.336564 1.758281 -34.000759 0.000000 0.000000 0.411525 8.576622 -0.320188 40.996513 35.046719 -27.272057 33.968288 19.772360 -30.140665 6.996825 0.000000 0.000000 -123.175331 -12.482766 -1.593444 87.682556 0.025075 -4.876927 13.611595 2.328721 5.489282 -83.755264 -6.756190 -53.182072 110.144814 27.974726 12.400018 14.680790 -1.731548 -5.013693 
-17.472744 6.495411 17.610912 0.000000 0.000000 180.000000 -0.244124 2.467662 0.115422 0.008348 -3.238397 -21.895689 -14.000949 -15.003624 -29.000902 -5.518199 23.405092 -12.574270 -2.099849 -27.158018 -1.610122 -27.477674 -25.183586 7.428901 -79.162697 6.905473 1.478529 -34.000759 0.000000 0.000000 0.411525 8.576622 -0.320188 40.412079 35.521927 -27.615938 32.865417 20.203829 -28.488241 6.996825 0.000000 0.000000 -123.175331 -12.482766 -1.593444 87.682556 0.025075 -4.876927 13.611595 2.328721 5.489282 -83.755264 -6.756190 -53.182072 110.144814 27.974726 12.400018 14.680790 -1.731548 -5.013693 
